<svg width="35" height="35" viewBox="0 0 35 35" fill="none" xmlns="http://www.w3.org/2000/svg">
<path d="M28.4247 0C32.0595 0 35 2.93706 35 6.5676V28.4324C35 32.0629 32.0595 35 28.4247 35H24.1774V21.4161H28.7106L29.3641 16.1538H24.1774V12.7681C24.1774 11.2587 24.5858 10.2389 26.7911 10.2389L29.5683 10.1981V5.50699C29.0782 5.42541 27.4037 5.30303 25.4842 5.30303C21.4819 5.30303 18.7048 7.75058 18.7048 12.2786V16.1538H14.1307V21.4161H18.7048V35H6.57526C2.94049 35 0 32.0629 0 28.4324V6.5676C0 2.93706 2.94049 0 6.57526 0H28.4247Z" fill="black"/>
</svg>
